<svg id="bonus" xmlns="http://www.w3.org/2000/svg" width="21.305" height="19.948" viewBox="0 0 21.305 19.948">
  <g id="Group_37" data-name="Group 37" transform="translate(1.332 10.627)">
    <g id="Group_36" data-name="Group 36">
      <path id="Path_50" data-name="Path 50" d="M32,271.692v7.989a1.333,1.333,0,0,0,1.332,1.332h6.658v-9.321Z" transform="translate(-32 -271.692)" fill="#fff"/>
    </g>
  </g>
  <g id="Group_39" data-name="Group 39" transform="translate(0 0)">
    <g id="Group_38" data-name="Group 38">
      <path id="Path_51" data-name="Path 51" d="M19.974,21.609H15.76a5.173,5.173,0,0,0,.743-.6,2.783,2.783,0,0,0,0-3.917,2.814,2.814,0,0,0-3.905,0c-.578.579-2.109,2.937-1.9,4.513h-.1c.21-1.575-1.321-3.933-1.9-4.513a2.816,2.816,0,0,0-3.905,0,2.787,2.787,0,0,0,0,3.917,5.269,5.269,0,0,0,.744.6H1.332A1.334,1.334,0,0,0,0,22.94v2a.666.666,0,0,0,.666.666H9.321V22.94h2.663V25.6h8.655a.666.666,0,0,0,.666-.666v-2A1.333,1.333,0,0,0,19.974,21.609ZM9.242,21.565A.439.439,0,0,1,9,21.609a6.548,6.548,0,0,1-3.25-1.534,1.452,1.452,0,0,1,0-2.04,1.419,1.419,0,0,1,2.017,0C8.661,18.938,9.553,21.244,9.242,21.565Zm3.065.044c-.189,0-.245-.043-.245-.044-.31-.321.582-2.627,1.479-3.53a1.434,1.434,0,1,1,2.017,2.04A6.547,6.547,0,0,1,12.308,21.609Z" transform="translate(0 -16.308)" fill="#fff"/>
    </g>
  </g>
  <g id="Group_41" data-name="Group 41" transform="translate(11.984 10.627)">
    <g id="Group_40" data-name="Group 40">
      <path id="Path_52" data-name="Path 52" d="M288,271.692v9.321h6.658a1.332,1.332,0,0,0,1.332-1.332v-7.989Z" transform="translate(-288 -271.692)" fill="#fff"/>
    </g>
  </g>
</svg>
