<svg xmlns="http://www.w3.org/2000/svg" width="32.57" height="19" viewBox="0 0 32.57 19">
  <path id="vk" d="M27.028,15.9c-.527-.665-.376-.961,0-1.555.007-.007,4.354-6.013,4.8-8.051h0c.223-.742,0-1.288-1.076-1.288H27.194a1.529,1.529,0,0,0-1.549.992,29.128,29.128,0,0,1-4.378,7.153c-.828.813-1.211,1.074-1.663,1.074-.223,0-.569-.261-.569-1V6.288c0-.89-.254-1.288-1-1.288h-5.6a.852.852,0,0,0-.907.8c0,.844,1.282,1.038,1.415,3.413v5.153c0,1.129-.2,1.337-.66,1.337-1.211,0-4.149-4.358-5.89-9.345C6.041,5.392,5.7,5,4.784,5H1.221C.2,5,0,5.47,0,5.993,0,6.919,1.211,11.521,5.629,17.6c2.945,4.15,7.092,6.4,10.865,6.4,2.268,0,2.545-.5,2.545-1.358,0-3.966-.2-4.34.931-4.34.527,0,1.433.261,3.55,2.262C25.94,22.937,26.338,24,27.692,24h3.561c1.015,0,1.53-.5,1.234-1.485C31.81,20.443,27.234,16.18,27.028,15.9Z" transform="translate(0 -5)" fill="#5a6098"/>
</svg>
