<?xml version="1.0" encoding="iso-8859-1"?>
<!-- Generator: Adobe Illustrator 18.1.1, SVG Export Plug-In . SVG Version: 6.00 Build 0)  -->
<svg version="1.1" id="Capa_1" xmlns="http://www.w3.org/2000/svg" xmlns:xlink="http://www.w3.org/1999/xlink" x="0px" y="0px"
	 viewBox="0 0 234 234" style="enable-background:new 0 0 234 234;" xml:space="preserve">
<g>
	<path style="fill:#030104;" d="M186.587,196.981c-45.015-4.359-18.483-81.756-9.129-75.143
		c19.475,9.604,18.479-13.514,49.91,15.415c12.688-37.076,5.659-66.756-9.504-56.94c-18.835,13.473-35.666,20.27-32.436,10
		C220.93-5.161,63.804-32.315,51.746,73.82c-6.919,13.17-30.664-13.598-39.93-12.703c-12.335,3.254-14.82,21.874-8.354,54.356
		c26.053-25.11,24.612-8.347,45.249-11.344c5.557,84.883,45.253,130.244,138.777,113.271c18.238-4.051,33.199,1.17,46.512,11.012
		C232.62,211.272,216.911,200.81,186.587,196.981z M83.084,41.876l28.864,28.431C92.483,80.063,71.76,62.548,83.084,41.876z
		 M150.044,102.349L150.044,102.349c-2.094,5.582-5.791,11.259-11.104,17.034l-4.1-6.502l-9.617,10.7l-6.462-11.414l-9.813,12.507
		l-3.672-14.951l-9.514,9.701l-3.515-17.979l-10.222,8.819l-0.698-15.863l-4.526,3.359c-0.54-2.89-0.941-8.13-1.194-15.713
		c5.835,11.286,16.076,19.199,30.728,23.722c2.076,0.502,4.538,0.903,7.391,1.207C126.689,108.362,138.8,106.818,150.044,102.349
		L150.044,102.349L150.044,102.349z M134.276,73.54l37.428-15.511C174.439,81.44,148.654,89.892,134.276,73.54z"/>
</g>
<g>
</g>
<g>
</g>
<g>
</g>
<g>
</g>
<g>
</g>
<g>
</g>
<g>
</g>
<g>
</g>
<g>
</g>
<g>
</g>
<g>
</g>
<g>
</g>
<g>
</g>
<g>
</g>
<g>
</g>
</svg>
