<?xml version="1.0" encoding="utf-8"?>
<!-- Svg Vector Icons : http://www.onlinewebfonts.com/icon -->
<!DOCTYPE svg PUBLIC "-//W3C//DTD SVG 1.1//EN" "http://www.w3.org/Graphics/SVG/1.1/DTD/svg11.dtd">
<svg version="1.1" xmlns="http://www.w3.org/2000/svg" x="0px" y="0px"
     viewBox="0 0 1000 1000" enable-background="new 0 0 1000 1000" xml:space="preserve">
<metadata> Svg Vector Icons : http://www.onlinewebfonts.com/icon </metadata>
    <g><g transform="translate(0.000000,511.000000) scale(0.100000,-0.100000)"><path d="M4585.6,4997.1c-34.1-4.3-159.8-27.7-274.8-51.1c-1167.5-242.9-2034.6-1167.5-2452.2-2616.2c-161.9-564.6-266.3-1291.1-266.3-1864.2c0-351.5-68.2-645.6-360-1563.8C891.3-2163.5,784.8-2696.1,810.4-3190.4c21.3-366.5,117.2-722.2,225.8-818.1c25.6-23.4,72.4-40.5,106.5-40.5c121.4,0,164.1,53.3,362.2,462.3c183.2,375,294,545.4,355.8,545.4c46.9,0,153.4-183.2,385.6-662.6c117.2-240.8,251.4-494.3,298.3-564.6c168.3-247.2,351.5-368.6,507.1-340.9c140.6,27.7,249.3,157.6,498.5,598.7c168.3,298.3,289.7,458.1,343,458.1c51.1,0,189.6-181.1,357.9-468.7c396.3-677.5,609.3-852.2,890.6-735c170.4,70.3,302.5,227.9,585.9,700.9c213,353.7,323.8,502.8,375,502.8c59.6,0,166.2-144.9,360-483.6c328.1-577.4,490-686,752.1-496.4c159.8,117.2,272.7,291.9,545.4,841.6c266.3,539,332.4,649.8,383.5,649.8c57.5,0,172.6-168.3,302.5-447.4c238.6-507.1,279.1-562.5,413.3-558.2c104.4,2.2,161.9,74.6,230.1,289.8c121.4,383.5,136.3,796.8,44.7,1314.5c-59.6,334.5-142.8,639.2-351.5,1297.5c-326,1026.9-364.3,1203.7-381.4,1768.3c-49,1482.8-498.5,2746.2-1248.5,3515.3c-577.4,590.2-1295.3,877.8-2168.8,871.4C4798.6,5007.8,4621.8,5001.4,4585.6,4997.1z M5544.3,4679.7c532.6-98,958.7-319.6,1352.9-703.1c483.6-468.7,811.7-1088.7,1022.6-1926c115.1-458.1,191.7-1050.3,191.7-1502c0-432.5,70.3-760.6,340.9-1608.5c362.2-1135.6,447.4-1525.4,447.4-2015.4c-2.1-202.4-38.3-502.8-66-530.5c-6.4-4.3-46.9,74.6-91.6,176.8c-225.8,517.7-441,726.5-683.9,662.6c-157.7-42.6-240.7-159.8-534.7-752.1c-262.1-526.2-421.9-781.9-502.8-796.8c-40.5-8.5-142.7,136.4-315.3,443.2c-298.3,530.5-477.2,677.5-713.7,585.9c-136.3-51.1-264.2-206.7-517.7-626.4c-253.5-417.6-383.5-577.4-473-577.4c-89.5,0-232.2,172.6-455.9,545.4c-304.7,507.1-402.7,622.1-566.7,671.1c-198.1,59.7-385.6-87.4-615.7-481.5c-234.4-402.7-326-545.4-357.9-558.2c-85.2-32-249.3,219.5-556,850.1c-259.9,532.6-349.4,654.1-507.1,696.7c-238.6,63.9-432.5-115-660.5-609.3l-112.9-245l-23.4,83.1c-14.9,44.7-29.8,215.2-36.2,379.2c-19.2,500.7,70.3,948.1,383.5,1928.1C1839.4-148,1864.9-26.6,1890.5,644.5c27.7,747.8,110.8,1265.5,287.6,1800.3c428.2,1303.9,1344.3,2128.4,2514,2266.8C4903,4737.2,5318.5,4720.1,5544.3,4679.7z"/><path
            d="M5844.7,3316.2c-27.7-70.3-10.6-368.6,29.8-539c112.9-466.6,349.4-700.9,779.8-769.1c245-38.3,411.2,8.5,383.5,108.7c-42.6,161.9-1043.9,1233.6-1150.4,1233.6C5870.3,3350.2,5851.1,3335.3,5844.7,3316.2z"/><path
            d="M4336.3,3052c-302.5-104.4-1161.1-507.1-1316.6-617.8c-81-57.5-81-110.8,0-179c102.3-85.2,319.6-142.7,539-144.9c168.3,0,202.4,6.4,323.8,66c168.3,83.1,357.9,268.4,487.9,477.2c151.3,240.8,206.7,441,125.7,441C4474.8,3092.5,4402.4,3075.4,4336.3,3052z"/><path
            d="M4756,1711.9c-153.4-72.4-291.9-215.2-366.5-377.1c-85.2-187.5-102.3-349.4-74.6-728.6c36.2-490,121.4-756.3,296.1-924.7c108.6-104.4,210.9-144.9,372.8-144.9c185.4,0,272.7,29.8,383.5,125.7c193.9,172.6,283.3,438.9,317.4,960.9c32,492.1-14.9,698.8-213,920.4C5273.7,1765.2,5003.2,1829.1,4756,1711.9z"/></g></g>
</svg>
