<?xml version="1.0" standalone="no"?>
<!DOCTYPE svg PUBLIC "-//W3C//DTD SVG 1.1//EN" "http://www.w3.org/Graphics/SVG/1.1/DTD/svg11.dtd" >
<svg xmlns="http://www.w3.org/2000/svg" version="1.1"
     viewBox="-30 -210 2570 2248">
    <g transform="matrix(1 0 0 -1 0 1638)">
        <path fill="currentColor"
              d="M955 1269q0 60 47 110q48 51 100 51q24 0 44.5 -11.5t35.5 -31t23.5 -45.5t8.5 -55q0 -67 -25 -117q-23 -51 -49 -51q-15 0 -33 22q-35 34 -90 48q-62 14 -62 80zM1353 1060q0 60 71 111q73 52 145 52q34 0 63.5 -11t51.5 -31t34 -47.5t12 -60.5q0 -50 -33 -89
q-34 -40 -77 -40q-15 0 -29 5.5t-26 13.5l-47 33q-39 21 -110 33q-55 9 -55 31zM1714 464q18 0 34.5 -7t29.5 -18.5t20.5 -26t7.5 -29.5q0 -23 -20 -23q-10 0 -16.5 3t-12.5 6.5t-12.5 6.5t-16.5 3q-25 0 -52.5 -18t-60.5 -53l-24 -25q-49 -52 -110 -52q-30 0 -54 14
t-40.5 37.5t-25 55t-8.5 66.5q0 128 92 231q93 102 212 102q28 0 52.5 -7t46.5 -20q45 -28 45 -66q0 -20 -19 -20l-20 5q-20 11 -40.5 17.5t-41.5 6.5q-93 0 -165 -76q-73 -75 -73 -175q0 -14 2.5 -28.5t7 -26.5t11.5 -19.5t15 -7.5q22 1 38 14.5t33 33.5q88 96 165 96z
M1486 822q0 -74 -96 -126q-48 -26 -99 -39t-107 -13q-114 0 -195 84q-79 83 -79 199q0 63 25.5 99.5t67.5 36.5q46 0 75 -48q19 -31 37.5 -51.5t38 -32.5t42 -16.5t49.5 -2.5l108 9q28 2 52.5 -5t42.5 -20.5t28 -32.5t10 -41zM1869 153q0 92 66 229q59 121 96.5 211.5
t56.5 156.5q37 127 37 245q0 161 -85 307q-42 73 -100.5 129.5t-133.5 99.5q-147 83 -319 83q-181 0 -354 -82q-342 -162 -431 -542q4 -4 9.5 -13t11 -19.5t9.5 -21t4 -19.5q0 -17 -19 -17q-11 0 -26 17q-35 30 -94 30q-91 0 -157 -81q-66 -80 -66 -160q0 -36 9.5 -58.5
t24.5 -22.5q9 0 22 7.5t27 24.5l28 30q24 26 51.5 38t58.5 12q38 0 64.5 -22.5t24.5 -64.5l-1 -32q6 -115 74 -258q35 -74 83 -137t110 -118q124 -110 286.5 -171t343.5 -61q59 0 122 5.5t132 16.5t124.5 23.5t98.5 26.5q-91 10 -139.5 65.5t-48.5 142.5zM1965 155
q0 -29 7 -50t22 -34.5t38.5 -21.5t56.5 -12h24q44 0 68.5 -19.5t24.5 -55.5q0 -83 -208 -134q-104 -26 -208 -38.5t-208 -12.5q-101 0 -197 17.5t-185 51t-169 81.5t-148 109q-138 123 -214 283q-38 81 -60 154.5t-22 142.5v12l2 12q-24 -7 -52 -38q-65 -73 -128 -73
q-57 0 -92 48t-38 128q-2 65 26 125.5t74.5 107.5t104.5 75.5t117 28.5h15q56 205 175 348q120 144 308 231q190 89 387 89q201 0 369 -96q169 -95 267 -261q49 -84 74 -172t25 -184q0 -132 -44 -279q-22 -73 -61 -166.5t-95 -210.5q-56 -116 -56 -186z"/>
    </g>

</svg>
