<svg id="bonuses-white" xmlns="http://www.w3.org/2000/svg" width="17.033" height="15.948" viewBox="0 0 17.033 15.948">
    <g id="Group_37" data-name="Group 37" transform="translate(1.065 8.496)">
        <g id="Group_36" data-name="Group 36">
            <path id="Path_50" data-name="Path 50" d="M32,271.692v6.387a1.066,1.066,0,0,0,1.065,1.065h5.323v-7.452Z"
                  transform="translate(-32 -271.692)" fill="#fff"/>
        </g>
    </g>
    <g id="Group_39" data-name="Group 39" transform="translate(0 0)">
        <g id="Group_38" data-name="Group 38">
            <path id="Path_51" data-name="Path 51"
                  d="M15.968,20.546H12.6a4.136,4.136,0,0,0,.594-.476,2.225,2.225,0,0,0,0-3.132,2.249,2.249,0,0,0-3.122,0c-.462.463-1.686,2.348-1.517,3.608H8.478c.168-1.259-1.056-3.145-1.517-3.608a2.252,2.252,0,0,0-3.122,0,2.228,2.228,0,0,0,0,3.132,4.212,4.212,0,0,0,.6.476H1.065A1.066,1.066,0,0,0,0,21.61v1.6a.532.532,0,0,0,.532.532h6.92V21.61H9.581v2.129H16.5a.532.532,0,0,0,.532-.532v-1.6A1.066,1.066,0,0,0,15.968,20.546Zm-8.579-.035a.351.351,0,0,1-.2.035,5.235,5.235,0,0,1-2.6-1.226,1.161,1.161,0,0,1,0-1.631,1.135,1.135,0,0,1,1.613,0C6.924,18.41,7.637,20.254,7.389,20.511Zm2.451.035c-.151,0-.2-.034-.2-.035-.248-.257.465-2.1,1.183-2.822a1.147,1.147,0,1,1,1.613,1.631A5.234,5.234,0,0,1,9.84,20.546Z"
                  transform="translate(0 -16.308)" fill="#fff"/>
        </g>
    </g>
    <g id="Group_41" data-name="Group 41" transform="translate(9.581 8.496)">
        <g id="Group_40" data-name="Group 40">
            <path id="Path_52" data-name="Path 52" d="M288,271.692v7.452h5.323a1.065,1.065,0,0,0,1.065-1.065v-6.387Z"
                  transform="translate(-288 -271.692)" fill="#fff"/>
        </g>
    </g>
</svg>
