<svg xmlns="http://www.w3.org/2000/svg" width="27.198" height="27.197" viewBox="0 0 27.198 27.197">
  <g id="discount" transform="translate(-0.002 6.055) rotate(-16)">
    <g id="Group_106" data-name="Group 106" transform="translate(0 0.006)">
      <g id="Group_105" data-name="Group 105">
        <path id="Path_73" data-name="Path 73" d="M21.989,1.5a1.49,1.49,0,0,0-1.5-1.5A1.5,1.5,0,0,0,19.43.449c-.12.12-.339.38-.459.524a.356.356,0,0,0,.548.455c.187-.226.342-.4.414-.475a.793.793,0,0,1,.56-.234h0a.777.777,0,0,1,.779.782.793.793,0,0,1-.234.56,12.729,12.729,0,0,1-1.259.964A2.257,2.257,0,0,0,17.835,1.9H12.618a2.619,2.619,0,0,0-1.864.772L.327,13.1a1.116,1.116,0,0,0,0,1.579l6.986,6.986a1.117,1.117,0,0,0,1.579,0L19.319,11.241a2.619,2.619,0,0,0,.772-1.864V4.16a2.255,2.255,0,0,0-.045-.45,13.634,13.634,0,0,0,1.5-1.146A1.5,1.5,0,0,0,21.989,1.5Zm-2.61,7.873a1.911,1.911,0,0,1-.563,1.36L8.388,21.164a.4.4,0,0,1-.571,0L.831,14.178a.4.4,0,0,1,0-.571L11.258,3.18a1.911,1.911,0,0,1,1.36-.563h5.216a1.545,1.545,0,0,1,1.358.81C18.772,3.7,18.3,4,17.8,4.293l-.048-.051a1.5,1.5,0,1,0,.388.677c.435-.253.852-.512,1.238-.762,0,0,0,0,0,0V9.376Zm-3-3.916a.356.356,0,0,0,.478.158q.313-.158.623-.326a.784.784,0,1,1-.331-.631q-.3.164-.613.321A.356.356,0,0,0,16.376,5.46Z" transform="translate(0 -0.006)" fill="#fff"/>
      </g>
    </g>
    <g id="Group_108" data-name="Group 108" transform="translate(10.259 7.262)">
      <g id="Group_107" data-name="Group 107">
        <path id="Path_74" data-name="Path 74" d="M239.223,168.962a.356.356,0,0,0-.356.356v7.523a.356.356,0,0,0,.712,0v-7.523A.356.356,0,0,0,239.223,168.962Z" transform="translate(-238.867 -168.962)" fill="#fff"/>
      </g>
    </g>
    <g id="Group_110" data-name="Group 110" transform="translate(6.432 9.884)">
      <g id="Group_109" data-name="Group 109">
        <path id="Path_75" data-name="Path 75" d="M152.328,230.461a1.5,1.5,0,1,0,.438,1.058A1.5,1.5,0,0,0,152.328,230.461Zm-.5,1.612a.784.784,0,1,1,.23-.554A.785.785,0,0,1,151.825,232.073Z" transform="translate(-149.775 -230.024)" fill="#fff"/>
      </g>
    </g>
    <g id="Group_112" data-name="Group 112" transform="translate(11.806 9.884)">
      <g id="Group_111" data-name="Group 111">
        <path id="Path_76" data-name="Path 76" d="M277.457,230.461a1.5,1.5,0,1,0,0,2.116A1.5,1.5,0,0,0,277.457,230.461Zm-.5,1.612a.783.783,0,1,1,0-1.108A.785.785,0,0,1,276.954,232.073Z" transform="translate(-274.904 -230.024)" fill="#fff"/>
      </g>
    </g>
  </g>
</svg>
