<svg xmlns="http://www.w3.org/2000/svg" width="17.834" height="22.538" viewBox="0 0 17.834 22.538">
    <path id="notification"
          d="M70.9,17.936a3.5,3.5,0,0,1-1.064-1.449,16.767,16.767,0,0,1-1.109-6.626c0-.008,0-.017,0-.025a6.4,6.4,0,0,0-3.764-5.8V2.511A2.511,2.511,0,0,0,62.455,0h-.208a2.512,2.512,0,0,0-2.507,2.511V4.036a6.4,6.4,0,0,0-3.765,5.825,16.767,16.767,0,0,1-1.109,6.626A3.5,3.5,0,0,1,53.8,17.936a.642.642,0,0,0-.353.73.672.672,0,0,0,.662.516h4.84a3.4,3.4,0,0,0,6.8,0h4.84a.672.672,0,0,0,.662-.516A.642.642,0,0,0,70.9,17.936ZM61.061,2.511a1.188,1.188,0,0,1,1.186-1.188h.208a1.188,1.188,0,0,1,1.186,1.188v1.1a6.4,6.4,0,0,0-2.58,0v-1.1Zm1.29,18.7a2.084,2.084,0,0,1-2.079-2.033H64.43A2.084,2.084,0,0,1,62.351,21.216ZM65.01,17.86H55.617a6.922,6.922,0,0,0,.346-.607A16.718,16.718,0,0,0,57.3,9.862a5.054,5.054,0,1,1,10.109,0c0,.008,0,.016,0,.024a16.684,16.684,0,0,0,1.334,7.364,6.928,6.928,0,0,0,.346.607Z"
          transform="translate(-53.434 0)" fill="#5a6098"/>
</svg>
