<svg id="refs-white" xmlns="http://www.w3.org/2000/svg" width="20.87" height="17.563" viewBox="0 0 20.87 17.563">
    <path id="Path_53" data-name="Path 53"
          d="M12.594,9.362a3.792,3.792,0,0,1,1.765,2.817,3.06,3.06,0,1,0-1.765-2.817ZM10.589,15.63a3.061,3.061,0,1,0-3.061-3.061A3.061,3.061,0,0,0,10.589,15.63Zm1.3.209H9.29a3.924,3.924,0,0,0-3.919,3.919v3.176l.008.05.219.068a17.839,17.839,0,0,0,5.329.859,10.939,10.939,0,0,0,4.653-.874l.2-.1h.022V19.757A3.923,3.923,0,0,0,11.887,15.838Zm5.064-3.16H14.374a3.772,3.772,0,0,1-1.164,2.627,4.657,4.657,0,0,1,3.326,4.456v.979a10.546,10.546,0,0,0,4.108-.863l.2-.1h.022V16.6A3.923,3.923,0,0,0,16.951,12.678ZM5.218,12.47A3.04,3.04,0,0,0,6.846,12,3.788,3.788,0,0,1,8.27,9.582c0-.057.009-.114.009-.172a3.061,3.061,0,1,0-3.06,3.06Zm2.749,2.836A3.774,3.774,0,0,1,6.8,12.693c-.1-.007-.19-.015-.288-.015h-2.6A3.923,3.923,0,0,0,0,16.6v3.177l.008.049.219.069a18.375,18.375,0,0,0,4.413.83v-.959A4.658,4.658,0,0,1,7.967,15.306Z"
          transform="translate(0 -6.348)" fill="#fff"/>
</svg>
