<svg xmlns="http://www.w3.org/2000/svg" width="38" height="38" viewBox="0 0 38 38">
    <g transform="translate(-1823 -989)">
        <path d="M3,31a18.876,18.876,0,0,1-13.435-5.565,19,19,0,0,1,0-26.87A18.875,18.875,0,0,1,3-7,18.875,18.875,0,0,1,16.435-1.435a19,19,0,0,1,0,26.87A18.876,18.876,0,0,1,3,31ZM2.692,10.828h0l-4.585,4.717a.327.327,0,0,0-.092.253l.457,5.957a.328.328,0,0,0,.225.286.329.329,0,0,0,.1.016.326.326,0,0,0,.248-.113l3.194-3.7,3.949,1.887a.328.328,0,0,0,.455-.2L12.216,2.2a.327.327,0,0,0-.312-.426.326.326,0,0,0-.139.031L-9.5,11.681a.328.328,0,0,0-.189.293.324.324,0,0,0,.183.3l6.019,2.954a.332.332,0,0,0,.145.034.322.322,0,0,0,.2-.065Z"
              transform="translate(1839 996)" fill="#be4254"/>
    </g>
</svg>
