<svg xmlns="http://www.w3.org/2000/svg" width="23.249" height="23.249" viewBox="0 0 23.249 23.249">
    <g id="settings" transform="translate(0 0)">
        <path id="Path_54" data-name="Path 54"
              d="M12.354,23.249H10.895a2.143,2.143,0,0,1-2.14-2.14v-.494a9.386,9.386,0,0,1-1.457-.6l-.35.35a2.14,2.14,0,0,1-3.027,0L2.889,19.328a2.14,2.14,0,0,1,0-3.027l.35-.35a9.386,9.386,0,0,1-.6-1.457H2.14A2.143,2.143,0,0,1,0,12.354V10.895a2.143,2.143,0,0,1,2.14-2.14h.494a9.388,9.388,0,0,1,.6-1.457l-.35-.35a2.14,2.14,0,0,1,0-3.027L3.921,2.889a2.14,2.14,0,0,1,3.027,0l.35.35a9.4,9.4,0,0,1,1.457-.6V2.14A2.143,2.143,0,0,1,10.895,0h1.459a2.143,2.143,0,0,1,2.14,2.14v.494a9.386,9.386,0,0,1,1.457.6l.35-.35a2.14,2.14,0,0,1,3.027,0L20.36,3.92a2.14,2.14,0,0,1,0,3.027l-.35.35a9.386,9.386,0,0,1,.6,1.457h.494a2.143,2.143,0,0,1,2.14,2.14v1.459a2.143,2.143,0,0,1-2.14,2.14h-.494a9.388,9.388,0,0,1-.6,1.457l.35.35a2.14,2.14,0,0,1,0,3.027L19.328,20.36a2.14,2.14,0,0,1-3.027,0l-.35-.35a9.394,9.394,0,0,1-1.457.6v.494A2.143,2.143,0,0,1,12.354,23.249ZM7.525,18.579a8.029,8.029,0,0,0,2.081.864.681.681,0,0,1,.511.659v1.006a.779.779,0,0,0,.778.778h1.459a.779.779,0,0,0,.778-.778V20.1a.681.681,0,0,1,.511-.659,8.028,8.028,0,0,0,2.081-.864.681.681,0,0,1,.828.1l.712.712a.778.778,0,0,0,1.1,0L19.4,18.365a.778.778,0,0,0,0-1.1l-.713-.713a.681.681,0,0,1-.1-.828,8.027,8.027,0,0,0,.864-2.081.681.681,0,0,1,.659-.511h1.006a.779.779,0,0,0,.778-.778V10.895a.779.779,0,0,0-.778-.778H20.1a.681.681,0,0,1-.659-.511,8.029,8.029,0,0,0-.864-2.081.681.681,0,0,1,.1-.828l.712-.712a.778.778,0,0,0,0-1.1L18.365,3.852a.778.778,0,0,0-1.1,0l-.713.713a.681.681,0,0,1-.828.1,8.029,8.029,0,0,0-2.081-.864.681.681,0,0,1-.511-.659V2.14a.779.779,0,0,0-.778-.778H10.895a.779.779,0,0,0-.778.778V3.146a.681.681,0,0,1-.511.659,8.029,8.029,0,0,0-2.081.864.681.681,0,0,1-.828-.1l-.712-.712a.778.778,0,0,0-1.1,0L3.852,4.884a.778.778,0,0,0,0,1.1l.713.713a.681.681,0,0,1,.1.828,8.027,8.027,0,0,0-.864,2.081.681.681,0,0,1-.659.511H2.14a.779.779,0,0,0-.778.778v1.459a.779.779,0,0,0,.778.778H3.146a.681.681,0,0,1,.659.511,8.029,8.029,0,0,0,.864,2.081.681.681,0,0,1-.1.828l-.712.712a.778.778,0,0,0,0,1.1L4.884,19.4a.778.778,0,0,0,1.1,0l.713-.713a.684.684,0,0,1,.828-.1Z"
              transform="translate(0 0)" fill="#5a6098"/>
        <path id="Path_55" data-name="Path 55"
              d="M149.658,154.717a5.058,5.058,0,1,1,5.058-5.058A5.064,5.064,0,0,1,149.658,154.717Zm0-8.755a3.7,3.7,0,1,0,3.7,3.7A3.7,3.7,0,0,0,149.658,145.962Z"
              transform="translate(-138.034 -138.034)" fill="#5a6098"/>
    </g>
</svg>
