<svg xmlns="http://www.w3.org/2000/svg" width="20.963" height="21" viewBox="0 0 20.963 21">
    <path id="steam"
          d="M10.922,21a10.505,10.505,0,0,1-9.911-7.04l2.856.892a3.082,3.082,0,0,0,5.087,1.617A3.049,3.049,0,0,0,9.942,14.5l3.964-2.885A4.113,4.113,0,1,0,9.768,7.465L7.193,11.141c-.108-.01-.217-.015-.324-.015a2.923,2.923,0,0,0-1.562.431L.453,9.771A10.493,10.493,0,1,1,10.922,21ZM6.877,16.456a2.267,2.267,0,0,1-2-1.2c.213.081.431.169.642.254.155.062.314.126.471.187A1.793,1.793,0,1,0,7.331,12.37l-.943-.379a2.26,2.26,0,1,1,.489,4.465Zm7.036-6.2h-.007a2.757,2.757,0,1,1,.007,0Zm0-4.966a2.205,2.205,0,1,0,2.212,2.205A2.211,2.211,0,0,0,13.914,5.288Z"
          transform="translate(-0.453)" fill="#fff"/>
</svg>
