<svg id="support-white" xmlns="http://www.w3.org/2000/svg" width="16.482" height="16.482" viewBox="0 0 16.482 16.482">
    <path id="Path_47" data-name="Path 47"
          d="M66.536,0a6.309,6.309,0,0,0-6.3,6.3v5.817a1.454,1.454,0,1,0,2.909,0V7.272a1.456,1.456,0,0,0-1.454-1.454,1.438,1.438,0,0,0-.464.083,5.327,5.327,0,0,1,10.624,0,1.428,1.428,0,0,0-.464-.079A1.456,1.456,0,0,0,69.93,7.272v4.848a1.456,1.456,0,0,0,1.454,1.454,1.437,1.437,0,0,0,.485-.089v.574a.485.485,0,0,1-.485.485H67.9a1.454,1.454,0,1,0,0,.97h3.483a1.456,1.456,0,0,0,1.454-1.454V6.3A6.309,6.309,0,0,0,66.536,0Zm0,0"
          transform="translate(-58.295)" fill="#fff"/>
    <path id="Path_48" data-name="Path 48"
          d="M481.883,213.6v5.639a1.452,1.452,0,0,0,.97-1.365v-2.909A1.452,1.452,0,0,0,481.883,213.6Zm0,0"
          transform="translate(-466.37 -206.722)" fill="#fff"/>
    <path id="Path_49" data-name="Path 49"
          d="M0,214.963v2.909a1.452,1.452,0,0,0,.97,1.365V213.6A1.452,1.452,0,0,0,0,214.963Zm0,0"
          transform="translate(0 -206.722)" fill="#fff"/>
</svg>
