<svg id="support" xmlns="http://www.w3.org/2000/svg" width="200.816" height="200.816" viewBox="0 0 200.816 200.816">
  <path id="Path_47" data-name="Path 47" d="M137.017,0A76.872,76.872,0,0,0,60.234,76.783v70.875a17.72,17.72,0,1,0,35.439,0V88.6a17.739,17.739,0,0,0-17.72-17.719,17.524,17.524,0,0,0-5.658,1.01,64.9,64.9,0,0,1,129.442-.047,17.4,17.4,0,0,0-5.655-.962A17.739,17.739,0,0,0,178.361,88.6v59.063a17.739,17.739,0,0,0,17.72,17.72,17.515,17.515,0,0,0,5.906-1.088v6.994a5.914,5.914,0,0,1-5.906,5.906H153.648a17.719,17.719,0,1,0,0,11.813h42.433A17.739,17.739,0,0,0,213.8,171.285v-94.5A76.872,76.872,0,0,0,137.017,0Zm0,0" transform="translate(-36.609)" fill="#373b70"/>
  <path id="Path_48" data-name="Path 48" d="M481.883,213.6v68.7A17.689,17.689,0,0,0,493.7,265.666V230.229A17.692,17.692,0,0,0,481.883,213.6Zm0,0" transform="translate(-292.879 -129.821)" fill="#373b70"/>
  <path id="Path_49" data-name="Path 49" d="M0,230.229v35.437A17.69,17.69,0,0,0,11.813,282.3V213.6A17.692,17.692,0,0,0,0,230.229Zm0,0" transform="translate(0 -129.821)" fill="#373b70"/>
</svg>
