<svg xmlns="http://www.w3.org/2000/svg" width="16.042" height="17.5" viewBox="0 0 16.042 17.5"><path d="M2.881,15.455h10.4l-.5-1.608,1.188,1.019,1.089.976L17.042,17.5V1.8A1.935,1.935,0,0,0,15.111,0L2.885,0A1.861,1.861,0,0,0,1,1.808V13.65a1.825,1.825,0,0,0,1.881,1.805ZM10.572,4.144l-.024.009.009-.009Zm-5.564.925a4.5,4.5,0,0,1,2.575-.926l.1.1A5.307,5.307,0,0,0,5.306,5.362s.2-.1.545-.245a8.326,8.326,0,0,1,6.835.293A6,6,0,0,0,10.408,4.29l.136-.133a4.5,4.5,0,0,1,2.537.919,11.256,11.256,0,0,1,1.345,5.119,3.886,3.886,0,0,1-2.866,1.259s-.344-.389-.589-.729A2.945,2.945,0,0,0,12.6,9.7a10.731,10.731,0,0,1-1.035.537,6.924,6.924,0,0,1-1.333.39,7.094,7.094,0,0,1-4.4-.682L5.455,9.75A2.927,2.927,0,0,0,7.04,10.774c-.3.342-.6.731-.6.731a3.243,3.243,0,0,1-2.772-1.317A11.283,11.283,0,0,1,5.008,5.069Z" transform="translate(-1 0)" fill="#747aaa"/><path d="M13.959,12.047a.976.976,0,0,0,0-1.951v0a.975.975,0,0,0,0,1.948Z" transform="translate(-4.255 -2.734)" fill="#747aaa"/><path d="M9.341,12.047a.976.976,0,0,0,0-1.951l0,0a.975.975,0,0,0,0,1.948Z" transform="translate(-3.004 -2.734)" fill="#747aaa"/></svg>