<svg xmlns="http://www.w3.org/2000/svg" width="23.749" height="13.854" viewBox="0 0 23.749 13.854"><path d="M19.708,12.944c-.384-.485-.274-.7,0-1.134,0,0,3.175-4.385,3.5-5.87h0c.162-.541,0-.939-.785-.939h-2.6a1.115,1.115,0,0,0-1.129.723,21.239,21.239,0,0,1-3.192,5.216c-.6.593-.883.783-1.212.783-.162,0-.415-.19-.415-.731V5.939c0-.649-.185-.939-.732-.939H9.066a.621.621,0,0,0-.661.585c0,.616.935.757,1.032,2.489v3.757c0,.823-.149.975-.481.975-.883,0-3.025-3.178-4.295-6.814C4.4,5.286,4.154,5,3.488,5H.891C.149,5,0,5.342,0,5.724,0,6.4.883,9.755,4.1,14.188c2.147,3.026,5.172,4.666,7.923,4.666,1.654,0,1.855-.364,1.855-.991,0-2.892-.149-3.165.679-3.165.384,0,1.045.19,2.589,1.65,1.764,1.731,2.054,2.506,3.042,2.506h2.6c.74,0,1.115-.364.9-1.083C23.195,16.26,19.858,13.152,19.708,12.944Z" transform="translate(0 -5)" fill="#747aaa"/></svg>