<svg xmlns="http://www.w3.org/2000/svg" width="16.53" height="15.153" viewBox="0 0 16.53 15.153">
  <path id="wallet-icon" d="M14.464,2.755V2.066A2.068,2.068,0,0,0,12.4,0H2.066A2.068,2.068,0,0,0,0,2.066v11.02a2.068,2.068,0,0,0,2.066,2.066h12.4a2.068,2.068,0,0,0,2.066-2.066V4.821A2.068,2.068,0,0,0,14.464,2.755ZM2.066,1.378H12.4a.689.689,0,0,1,.689.689v.689H2.066a.689.689,0,1,1,0-1.378Zm12.4,12.4H2.066a.689.689,0,0,1-.689-.689V4.015a2.059,2.059,0,0,0,.689.118h12.4a.689.689,0,0,1,.689.689V6.543H11.365a2.411,2.411,0,0,0,0,4.821h3.788v1.722A.689.689,0,0,1,14.464,13.775Zm.689-3.788H13.541a2.388,2.388,0,0,0,0-2.066h1.613ZM10.331,8.954a1.035,1.035,0,1,1,1.033,1.033A1.034,1.034,0,0,1,10.331,8.954Zm0,0" fill="#fff"/>
</svg>
